<?xml version="1.0" standalone="no"?>
<!DOCTYPE svg PUBLIC "-//W3C//DTD SVG 20010904//EN"
 "http://www.w3.org/TR/2001/REC-SVG-20010904/DTD/svg10.dtd">
<svg version="1.0" xmlns="http://www.w3.org/2000/svg"
 width="504.000000pt" height="504.000000pt" viewBox="0 0 504.000000 504.000000"
 preserveAspectRatio="xMidYMid meet">
<metadata>
Created by potrace 1.11, written by Peter Selinger 2001-2013
</metadata>
<g transform="translate(0.000000,504.000000) scale(0.100000,-0.100000)"
fill="#000000" stroke="none">
<path d="M166 5024 c-57 -21 -102 -58 -133 -112 l-28 -47 0 -2175 c0 -2101 1
-2176 19 -2212 22 -46 79 -103 118 -119 28 -11 28 -12 28 -106 0 -110 12 -146
67 -197 49 -47 90 -57 217 -55 115 2 167 18 211 64 13 15 51 82 85 149 l60
121 494 0 c272 0 496 -2 499 -5 3 -3 32 -59 65 -126 92 -183 119 -202 297
-203 126 -1 172 14 219 70 41 48 49 74 51 174 l2 89 77 1 c42 1 80 -3 83 -8 3
-6 7 -47 8 -92 3 -95 21 -140 71 -184 45 -40 90 -51 204 -51 176 0 210 23 304
210 l64 125 493 0 494 0 70 -135 c58 -112 77 -139 113 -165 41 -28 50 -30 155
-33 132 -5 179 6 228 50 64 59 73 82 77 200 4 96 6 108 24 114 32 10 88 64
111 108 l22 41 3 2154 c1 1421 -1 2166 -8 2191 -15 55 -63 115 -117 147 l-48
28 -1112 3 c-1016 2 -1116 1 -1155 -15 -24 -9 -50 -22 -59 -30 -14 -11 -23 -9
-65 14 l-49 28 -1110 2 c-945 1 -1116 0 -1149 -13z m2237 -168 c10 -8 21 -27
25 -42 5 -16 8 -992 8 -2169 l-1 -2140 -1090 -1 c-600 0 -1103 3 -1119 7 -59
17 -55 -142 -56 2175 l0 2131 21 27 20 26 1087 0 c899 -1 1090 -3 1105 -14z
m2442 -11 l25 -24 0 -2133 c-1 -1661 -3 -2137 -13 -2149 -7 -9 -21 -20 -32
-26 -13 -6 -408 -9 -1120 -9 l-1100 1 -1 2145 c0 1180 3 2156 8 2169 19 53
-36 50 1126 51 l1083 0 24 -25z m-4225 -4512 c0 -9 -76 -150 -85 -155 -5 -4
-50 -8 -98 -8 -81 0 -88 2 -96 21 -8 23 -6 122 3 137 4 7 276 12 276 5z m1643
-2 c14 -2 8 -138 -7 -150 -9 -8 -46 -11 -103 -9 l-88 3 -37 70 c-21 39 -38 75
-38 80 0 7 46 10 133 9 72 -1 135 -2 140 -3z m787 -6 c0 -5 -17 -41 -38 -80
l-37 -70 -88 -3 c-57 -2 -94 1 -103 9 -9 8 -14 33 -14 79 0 36 2 69 4 71 10
10 276 4 276 -6z m1651 -5 c5 -56 4 -118 -3 -132 -7 -15 -23 -18 -102 -18
l-93 0 -42 81 c-22 44 -41 81 -41 82 0 1 63 2 140 2 119 1 140 -1 141 -15z"/>
<path d="M279 4761 l-29 -29 0 -2037 c0 -2174 -2 -2081 45 -2099 9 -3 464 -6
1011 -6 l995 0 24 25 c21 20 25 34 25 87 4 2300 -1 4030 -10 4048 -6 12 -22
25 -36 30 -15 6 -411 10 -1010 10 l-986 0 -29 -29z m1906 -2061 c0 -1053 -1
-1922 -3 -1930 -3 -13 -108 -15 -880 -15 l-877 1 -3 1932 -2 1932 882 -2 882
-3 1 -1915z"/>
<path d="M1814 4530 c-45 -17 -61 -69 -37 -119 21 -42 34 -45 198 -42 83 2
113 19 121 72 5 28 1 41 -19 64 -24 28 -26 29 -134 30 -60 1 -118 -1 -129 -5z"/>
<path d="M1913 4282 c-31 -5 -63 -48 -63 -87 0 -50 36 -77 107 -79 32 -1 70 2
86 7 57 19 75 85 35 132 -20 22 -32 26 -83 28 -33 1 -70 1 -82 -1z"/>
<path d="M778 4098 c-10 -10 -18 -21 -19 -25 -5 -40 -3 -213 3 -230 4 -12 4
-24 0 -27 -9 -6 -9 -187 1 -202 3 -6 3 -14 -1 -18 -10 -11 -11 -96 -1 -102 5
-3 6 -11 2 -17 -14 -22 -11 -290 3 -318 26 -51 19 -50 397 -50 195 1 362 3
370 6 37 15 48 99 18 136 l-19 24 -304 0 c-213 1 -309 4 -323 13 -11 6 -15 12
-9 12 7 0 11 53 12 160 1 122 -2 159 -11 153 -9 -5 -9 -3 -1 8 16 19 19 449 3
449 -5 0 -8 4 -5 9 8 13 -21 34 -35 25 -8 -4 -9 -3 -5 5 12 19 -56 9 -76 -11z
m32 -214 c0 -8 -19 -13 -24 -6 -3 5 1 9 9 9 8 0 15 -2 15 -3z"/>
<path d="M1793 2496 l-28 -24 -1 -193 c-1 -218 4 -243 59 -257 40 -11 66 -2
90 30 18 24 21 87 18 371 -1 87 -76 126 -138 73z"/>
<path d="M543 1248 c-46 -22 -50 -98 -7 -135 20 -18 37 -23 84 -23 79 0 108
13 125 54 17 41 8 76 -27 100 -26 19 -140 21 -175 4z"/>
<path d="M536 989 c-44 -35 -39 -116 10 -138 32 -14 216 -14 247 0 25 11 47
47 47 74 0 28 -23 63 -48 74 -14 7 -68 11 -129 10 -84 -1 -108 -5 -127 -20z"/>
<path d="M2714 4765 l-24 -24 0 -1318 c-1 -2970 -2 -2775 18 -2803 l19 -25
999 -3 c727 -2 1005 1 1020 9 12 6 27 22 33 36 8 17 11 584 11 2063 l0 2038
-31 26 -31 26 -995 0 -994 0 -25 -25z m1906 -2077 l0 -1933 -880 0 c-484 0
-880 2 -881 5 -3 15 -4 3828 -1 3843 4 16 54 17 883 17 l879 0 0 -1932z"/>
<path d="M4248 4528 c-52 -18 -61 -111 -15 -143 27 -19 223 -21 261 -3 47 21
54 103 11 138 -20 16 -214 22 -257 8z"/>
<path d="M4350 4280 c-72 -10 -87 -122 -21 -153 33 -16 134 -14 166 3 53 28
48 128 -7 146 -28 9 -91 11 -138 4z"/>
<path d="M3182 3710 c-19 -18 -29 -66 -24 -111 1 -4 4 -186 7 -405 7 -437 6
-434 67 -452 33 -10 668 -15 720 -6 50 10 71 102 32 145 -16 18 -38 19 -335
19 -175 0 -320 3 -323 8 -2 4 -7 180 -10 392 -7 375 -7 385 -28 407 -27 29
-76 30 -106 3z"/>
<path d="M4247 2513 c-39 -10 -47 -52 -47 -252 0 -183 1 -191 23 -216 36 -42
106 -35 132 15 21 41 22 378 0 419 -20 39 -51 49 -108 34z"/>
<path d="M2973 1245 c-45 -31 -40 -115 7 -140 34 -18 132 -20 163 -3 53 28 64
92 22 133 -21 22 -33 25 -97 25 -49 0 -81 -5 -95 -15z"/>
<path d="M2979 996 c-27 -20 -41 -56 -35 -92 11 -54 35 -64 163 -64 103 0 114
2 139 24 38 32 38 90 -1 124 -25 21 -35 23 -139 21 -66 -1 -118 -6 -127 -13z"/>
</g>
</svg>
