<?xml version="1.0" standalone="no"?>
<!DOCTYPE svg PUBLIC "-//W3C//DTD SVG 20010904//EN"
 "http://www.w3.org/TR/2001/REC-SVG-20010904/DTD/svg10.dtd">
<svg version="1.0" xmlns="http://www.w3.org/2000/svg"
 width="384.000000pt" height="384.000000pt" viewBox="0 0 384.000000 384.000000"
 preserveAspectRatio="xMidYMid meet">
<metadata>
Created by potrace 1.11, written by Peter Selinger 2001-2013
</metadata>
<g transform="translate(0.000000,384.000000) scale(0.100000,-0.100000)"
fill="#000000" stroke="none">
<path d="M392 3500 c-18 -11 -41 -34 -52 -52 -20 -33 -20 -54 -20 -1422 0
-1388 0 -1389 21 -1422 11 -19 34 -42 50 -51 27 -16 29 -22 29 -76 0 -67 17
-107 59 -136 25 -18 44 -21 124 -21 89 0 98 2 127 26 17 15 49 62 71 105 l39
79 310 0 309 0 47 -90 c57 -112 70 -120 195 -120 l91 0 39 39 c37 37 39 41 39
105 l0 66 50 0 50 0 0 -66 c0 -64 2 -68 39 -105 l39 -39 100 0 c91 0 103 2
129 24 15 13 46 60 68 105 l39 81 311 0 311 0 39 -81 c22 -45 53 -92 68 -105
26 -22 38 -24 126 -24 85 0 102 3 125 21 40 31 56 71 56 138 0 55 2 61 28 76
15 9 38 31 50 49 l22 32 0 1390 c0 1368 0 1389 -20 1422 -11 18 -34 41 -52 52
-32 19 -52 20 -751 20 -624 0 -722 -2 -747 -15 -27 -14 -33 -14 -60 0 -25 13
-123 15 -747 15 -699 0 -719 -1 -751 -20z m1452 -106 c14 -14 16 -153 16
-1380 l0 -1364 -705 0 c-686 0 -705 1 -715 19 -7 13 -10 456 -10 1362 0 1235
1 1344 17 1361 15 17 50 18 699 18 607 0 684 -2 698 -16z m1548 -1 c17 -15 18
-71 18 -1360 0 -908 -3 -1351 -10 -1364 -10 -18 -29 -19 -715 -19 l-705 0 0
1364 c0 1227 2 1366 16 1380 14 14 91 16 696 16 620 0 683 -1 700 -17z m-2692
-2870 c0 -5 -11 -26 -23 -48 -22 -39 -24 -40 -77 -40 l-55 0 -3 48 -3 47 80 0
c45 0 81 -3 81 -7z m1050 -43 l0 -51 -57 3 c-55 3 -58 4 -80 43 -12 22 -23 43
-23 48 0 4 36 7 80 7 l80 0 0 -50z m500 43 c0 -5 -11 -26 -23 -48 -22 -39 -25
-40 -80 -43 l-57 -3 0 51 0 50 80 0 c44 0 80 -3 80 -7z m1048 -40 l-3 -48 -55
0 c-53 0 -55 1 -77 40 -12 22 -23 43 -23 48 0 4 36 7 81 7 l80 0 -3 -47z"/>
<path d="M495 3346 l-25 -25 0 -1288 c0 -1018 3 -1293 13 -1313 l13 -25 644
-3 645 -2 18 21 c16 20 17 98 17 1318 0 1104 -2 1300 -14 1317 -14 18 -34 19
-650 22 l-636 2 -25 -24z m1205 -1316 l0 -1220 -555 0 -555 0 0 1220 0 1220
555 0 555 0 0 -1220z"/>
<path d="M1454 3185 c-19 -19 -23 -31 -18 -48 13 -43 23 -47 110 -47 78 0 85
2 100 25 21 33 11 73 -22 85 -14 6 -52 10 -85 10 -51 0 -64 -4 -85 -25z"/>
<path d="M1520 3037 c-17 -8 -26 -22 -28 -43 -5 -46 19 -64 83 -64 47 0 57 3
71 25 43 66 -45 123 -126 82z"/>
<path d="M806 2918 c-24 -34 -24 -567 0 -603 l16 -25 237 0 c171 0 240 3 249
12 18 18 14 73 -6 91 -16 15 -46 17 -210 17 l-192 0 0 255 c0 241 -1 255 -19
265 -31 16 -59 12 -75 -12z"/>
<path d="M1446 1898 c-12 -17 -16 -50 -16 -141 0 -113 1 -119 25 -143 27 -27
59 -26 83 4 17 22 17 273 0 290 -21 21 -75 15 -92 -10z"/>
<path d="M644 1096 c-13 -22 -14 -29 -2 -53 11 -23 20 -29 57 -31 63 -5 90 5
102 35 7 19 6 31 -6 49 -13 21 -23 24 -75 24 -52 0 -62 -3 -76 -24z"/>
<path d="M654 945 c-19 -19 -23 -31 -18 -48 13 -43 23 -47 110 -47 78 0 85 2
100 25 21 33 11 73 -22 85 -14 6 -52 10 -85 10 -51 0 -64 -4 -85 -25z"/>
<path d="M2060 3363 c-41 -15 -40 17 -40 -1338 0 -1249 1 -1303 18 -1318 17
-15 77 -17 653 -17 533 0 638 2 655 14 19 14 19 41 22 1316 l2 1301 -24 24
-25 25 -623 -1 c-343 0 -630 -3 -638 -6z m1190 -1333 l0 -1220 -555 0 -555 0
0 1220 0 1220 555 0 555 0 0 -1220z"/>
<path d="M3020 3203 c-40 -14 -53 -69 -22 -96 23 -21 159 -24 184 -4 30 23 31
55 4 82 -22 22 -34 25 -88 24 -35 0 -70 -3 -78 -6z"/>
<path d="M3054 3025 c-19 -19 -23 -31 -18 -48 12 -39 25 -47 78 -47 29 0 59 6
68 13 51 40 12 107 -62 107 -30 0 -47 -6 -66 -25z"/>
<path d="M2330 2675 c-10 -12 -12 -78 -7 -303 5 -279 6 -287 27 -304 20 -16
47 -18 255 -18 212 0 233 2 248 18 22 24 21 65 -1 85 -16 15 -47 17 -220 17
l-202 0 0 241 c0 146 -4 248 -10 260 -13 24 -72 26 -90 4z"/>
<path d="M2990 1901 c-15 -29 -13 -263 3 -283 21 -27 52 -30 80 -7 27 20 27
22 27 145 0 69 -5 134 -10 145 -8 14 -21 19 -50 19 -29 0 -42 -5 -50 -19z"/>
<path d="M2190 1101 c-28 -54 3 -91 77 -91 56 0 83 20 83 61 0 39 -18 49 -87
49 -51 0 -64 -3 -73 -19z"/>
<path d="M2220 963 c-40 -14 -53 -69 -22 -96 23 -21 159 -24 184 -4 30 23 31
55 4 82 -22 22 -34 25 -88 24 -35 0 -70 -3 -78 -6z"/>
</g>
</svg>
