<svg width="503.60699462890625" height="503.60699462890625" xmlns="http://www.w3.org/2000/svg">
 <defs>
  <filter height="200%" width="200%" y="-50%" x="-50%" id="svg_2_blur">
   <feGaussianBlur stdDeviation="0" in="SourceGraphic"/>
  </filter>
 </defs>
 <g>
  <title>background</title>
  <rect fill="none" id="canvas_background" height="402" width="582" y="-1" x="-1"/>
 </g>
 <g>
  <title>Layer 1</title>
  <rect fill="none" height="503.607" width="503.607" y="-1" x="0" id="svgEditorBackground"/>
  <g stroke="null" filter="url(#svg_2_blur)" transform="rotate(-24.15381622314453 286.303497314453,239.3029937744141) " id="svg_2">
   <g stroke="null" id="svg_3">
    <path stroke="null" id="svg_4" fill="#1DA1F2" d="m57.85846,433.323174l202.085811,0c4.393466,0 8.785884,-3.373888 8.785884,-8.435223l0,-404.911787c0,-5.061335 -3.514144,-8.435223 -8.785884,-8.435223l-202.085811,0c-5.27174,0 -8.785884,3.373888 -8.785884,8.435223l0,404.911787c-0.001047,5.061335 3.514144,8.435223 8.785884,8.435223zm8.785884,-404.911787l184.512995,0l0,388.040337l-184.512995,0l0,-388.040337z"/>
    <path stroke="null" id="svg_5" fill="#1DA1F2" d="m312.662719,433.323174l202.085811,0c4.393466,0 8.785884,-3.373888 8.785884,-8.435223l0,-404.911787c0,-5.061335 -3.514144,-8.435223 -8.785884,-8.435223l-202.085811,0c-5.27174,0 -8.785884,3.373888 -8.785884,8.435223l0,404.911787c-0.001047,5.061335 3.514144,8.435223 8.785884,8.435223zm8.785884,-404.911787l184.512995,0l0,388.040337l-184.512995,0l0,-388.040337z"/>
    <path stroke="null" id="svg_6" fill="#1DA1F2" d="m523.534414,-13.766736l-219.658627,0c-6.853471,0 -12.96266,2.313581 -17.572816,6.198024c-4.609109,-3.884444 -10.718298,-6.198024 -17.572816,-6.198024l-219.658627,0c-14.936946,0 -26.3587,10.96589 -26.3587,25.306673l0,421.783237c0,11.358857 7.169608,20.595089 17.572816,23.946866l0,14.857369c0,10.96589 9.665206,20.245338 21.08696,20.245338l14.936946,0c7.90761,0 15.81522,-4.218114 19.330411,-10.96589l11.861415,-22.776005l103.679299,0l11.861415,22.776005c3.514144,6.748781 10.54348,10.96589 18.45109,10.96589l14.936946,0c11.421754,0 21.08696,-9.279448 21.08696,-20.245338l0,-13.497562l8.785884,0l8.785884,0l0,13.497562c0,10.96589 9.665206,20.245338 21.08696,20.245338l14.936946,0c7.90761,0 15.81522,-4.218114 19.330411,-10.96589l11.861415,-22.776005l103.679299,0l11.861415,22.776005c3.514144,6.748781 10.54348,10.96589 18.45109,10.96589l14.936946,0c11.421754,0 21.08696,-9.279448 21.966281,-20.245338l0,-15.291542c9.583554,-3.667357 16.694541,-12.61213 16.694541,-23.512693l0,-421.783237c0,-14.340783 -11.422801,-25.306673 -26.359747,-25.306673zm-219.658627,16.87145l219.658627,0c5.27174,0 8.785884,3.373888 8.785884,8.435223l0,421.783237c0,5.061335 -3.514144,8.435223 -8.785884,8.435223l-51.839126,0l-115.101053,0l-52.718447,0l-8.785884,0l0,-430.218459c0,-5.061335 3.514144,-8.435223 8.785884,-8.435223zm-263.590143,8.435223c0,-5.061335 3.514144,-8.435223 8.785884,-8.435223l219.658627,0c5.27174,0 8.785884,3.373888 8.785884,8.435223l0,430.219464l-8.785884,0l-52.718447,0l-114.221732,0l-52.718447,0c-5.27174,0 -8.785884,-3.373888 -8.785884,-8.435223l0,-421.784242zm39.53805,462.274918c-0.878274,0.843221 -1.757596,1.687447 -3.514144,1.687447l-14.936946,0c-1.757596,0 -3.514144,-1.687447 -3.514144,-3.373888l0,-13.497562l29.873891,0l-7.908657,15.184004zm180.120576,-1.687447c0,1.687447 -1.757596,3.373888 -3.514144,3.373888l-14.936946,0c-1.757596,0 -2.63587,-0.843221 -3.514144,-1.687447l-7.90761,-15.184004l29.873891,0l0,13.497562l-0.001047,0zm74.683682,1.687447c-0.878274,0.843221 -1.757596,1.687447 -3.514144,1.687447l-14.936946,0c-1.757596,0 -3.514144,-1.687447 -3.514144,-3.373888l0,-13.497562l29.873891,0l-7.908657,15.184004zm180.120576,-1.687447c0,1.687447 -1.757596,3.373888 -3.514144,3.373888l-14.936946,0c-1.757596,0 -2.63587,-0.843221 -3.514144,-1.687447l-7.90761,-15.184004l29.873891,0l0,13.497562l-0.001047,0z"/>
    <path stroke="null" id="svg_7" fill="#1DA1F2" d="m216.012755,239.303005c-5.27174,0 -8.785884,3.373888 -8.785884,8.435223l0,33.7429c0,5.061335 3.514144,8.435223 8.785884,8.435223c4.393466,0 8.785884,-3.373888 8.785884,-8.435223l0,-33.7429c0,-5.060329 -3.514144,-8.435223 -8.785884,-8.435223z"/>
    <path stroke="null" id="svg_8" fill="#1DA1F2" d="m233.585571,36.847614l-17.572816,0c-5.27174,0 -8.785884,3.373888 -8.785884,8.435223s3.514144,8.435223 8.785884,8.435223l17.572816,0c4.393466,0 8.785884,-3.373888 8.785884,-8.435223s-3.514144,-8.435223 -8.785884,-8.435223z"/>
    <path stroke="null" id="svg_9" fill="#1DA1F2" d="m233.585571,62.154287l-8.785884,0c-5.27174,0 -8.785884,3.373888 -8.785884,8.435223s3.514144,8.435223 8.785884,8.435223l8.785884,0c4.393466,0 8.785884,-3.373888 8.785884,-8.435223s-3.514144,-8.435223 -8.785884,-8.435223z"/>
    <path stroke="null" id="svg_10" fill="#1DA1F2" d="m101.789976,391.145051l-17.572816,0c-5.27174,0 -8.785884,3.373888 -8.785884,8.435223s3.514144,8.435223 8.785884,8.435223l17.572816,0c4.393466,0 8.785884,-3.373888 8.785884,-8.435223s-3.514144,-8.435223 -8.785884,-8.435223z"/>
    <path stroke="null" id="svg_11" fill="#1DA1F2" d="m84.217161,382.709828l8.785884,0c4.393466,0 8.785884,-3.373888 8.785884,-8.435223c0,-5.061335 -3.514144,-8.435223 -8.785884,-8.435223l-8.785884,0c-5.27174,0 -8.785884,3.373888 -8.785884,8.435223c0,5.060329 3.514144,8.435223 8.785884,8.435223z"/>
    <path stroke="null" id="svg_12" fill="#1DA1F2" d="m186.995612,171.81821c0,-5.061335 -2.590083,-8.435223 -6.475592,-8.435223l-71.236144,0c-3.88551,0 -6.475592,3.373888 -6.475592,8.435223s2.590083,8.435223 6.475592,8.435223l71.235372,0c3.238182,0 6.476364,-3.373888 6.476364,-8.435223z"/>
    <path stroke="null" id="svg_13" fill="#1DA1F2" d="m470.817013,239.303005c-5.27174,0 -8.785884,3.373888 -8.785884,8.435223l0,33.7429c0,5.061335 3.514144,8.435223 8.785884,8.435223c4.393466,0 8.785884,-3.373888 8.785884,-8.435223l0,-33.7429c0,-5.060329 -3.514144,-8.435223 -8.785884,-8.435223z"/>
    <path stroke="null" id="svg_14" fill="#1DA1F2" d="m488.388782,36.847614l-17.572816,0c-5.27174,0 -8.785884,3.373888 -8.785884,8.435223s3.514144,8.435223 8.785884,8.435223l17.572816,0c4.393466,0 8.785884,-3.373888 8.785884,-8.435223s-3.514144,-8.435223 -8.785884,-8.435223z"/>
    <path stroke="null" id="svg_15" fill="#1DA1F2" d="m488.388782,62.154287l-8.785884,0c-5.27174,0 -8.785884,3.373888 -8.785884,8.435223s3.514144,8.435223 8.785884,8.435223l8.785884,0c4.393466,0 8.785884,-3.373888 8.785884,-8.435223s-3.514144,-8.435223 -8.785884,-8.435223z"/>
    <path stroke="null" id="svg_16" fill="#1DA1F2" d="m356.594235,391.145051l-17.572816,0c-5.27174,0 -8.785884,3.373888 -8.785884,8.435223s3.514144,8.435223 8.785884,8.435223l17.572816,0c4.393466,0 8.785884,-3.373888 8.785884,-8.435223s-3.514144,-8.435223 -8.785884,-8.435223z"/>
    <path stroke="null" id="svg_17" fill="#1DA1F2" d="m339.021419,382.709828l8.785884,0c4.393466,0 8.785884,-3.373888 8.785884,-8.435223c0,-5.061335 -3.514144,-8.435223 -8.785884,-8.435223l-8.785884,0c-5.27174,0 -8.785884,3.373888 -8.785884,8.435223c-0.001047,5.060329 3.514144,8.435223 8.785884,8.435223z"/>
    <path stroke="null" id="svg_18" fill="#1DA1F2" fill-opacity="0.9" d="m101.702468,86.299378l-0.213916,85.056643c-0.009724,3.866462 3.201735,7.739471 8.033986,7.750673s8.06121,-3.073947 8.072878,-7.713334l0.213916,-85.056643c0.011668,-4.639386 -3.201735,-7.739471 -8.033986,-7.750673s-8.06121,3.073947 -8.072878,7.713334z"/>
    <path stroke="null" id="svg_19" fill="#1DA1F2" d="m353.027273,125.479949l1.321659,84.301126c0.060079,3.832118 3.312713,7.617187 8.102041,7.547975s7.933842,-3.180496 7.861753,-7.778673l-1.321659,-84.301126c-0.072089,-4.598177 -3.312713,-7.617187 -8.102041,-7.547975s-7.933842,3.180496 -7.861753,7.778673z"/>
    <path stroke="null" id="svg_20" fill="#1DA1F2" d="m441.799601,209.452287c0,-5.061335 -2.590072,-8.435223 -6.475566,-8.435223l-71.235082,0c-3.885494,0 -6.475566,3.373888 -6.475566,8.435223s2.590072,8.435223 6.475566,8.435223l71.235082,0c3.237397,0 6.475566,-3.373888 6.475566,-8.435223z"/>
   </g>
  </g>
  <g id="svg_21"/>
  <g id="svg_22"/>
  <g id="svg_23"/>
  <g id="svg_24"/>
  <g id="svg_25"/>
  <g id="svg_26"/>
  <g id="svg_27"/>
  <g id="svg_28"/>
  <g id="svg_29"/>
  <g id="svg_30"/>
  <g id="svg_31"/>
  <g id="svg_32"/>
  <g id="svg_33"/>
  <g id="svg_34"/>
  <g id="svg_35"/>
 </g>
</svg>