<?xml version="1.0" standalone="no"?>
<!DOCTYPE svg PUBLIC "-//W3C//DTD SVG 20010904//EN"
 "http://www.w3.org/TR/2001/REC-SVG-20010904/DTD/svg10.dtd">
<svg version="1.0" xmlns="http://www.w3.org/2000/svg"
 width="36.000000pt" height="36.000000pt" viewBox="0 0 36.000000 36.000000"
 preserveAspectRatio="xMidYMid meet">
<metadata>
Created by potrace 1.15, written by Peter Selinger 2001-2017
</metadata>
<g transform="translate(0.000000,36.000000) scale(0.100000,-0.100000)"
fill="#000000" stroke="none">
<path d="M80 316 c0 -31 5 -46 16 -50 25 -10 34 -7 34 9 0 8 7 15 15 15 12 0
15 -14 15 -65 0 -37 4 -65 10 -65 6 0 10 28 10 65 0 67 8 78 37 49 9 -8 22
-13 29 -10 10 4 14 -3 14 -24 0 -20 5 -30 15 -30 10 0 15 -11 15 -35 0 -24 -5
-35 -15 -35 -9 0 -15 -9 -15 -25 0 -16 6 -25 15 -25 9 0 15 9 15 21 0 22 22
49 39 49 6 0 11 7 11 15 0 8 -5 15 -11 15 -17 0 -39 27 -39 48 0 11 -7 22 -15
26 -10 4 -15 20 -15 51 l0 45 -90 0 -90 0 0 -44z"/>
<path d="M60 235 c0 -16 -6 -25 -15 -25 -10 0 -15 -11 -15 -35 0 -24 5 -35 15
-35 9 0 15 -9 15 -25 0 -14 5 -25 10 -25 6 0 10 -20 10 -45 l0 -45 91 0 90 0
-3 43 c-3 36 -6 42 -25 43 -13 1 -23 -5 -23 -12 0 -10 -13 -14 -40 -14 -29 0
-40 4 -40 15 0 9 -9 15 -25 15 -20 0 -25 5 -25 25 0 14 -4 25 -10 25 -5 0 -10
16 -10 35 0 19 5 35 10 35 6 0 10 11 10 25 0 14 -4 25 -10 25 -5 0 -10 -11
-10 -25z"/>
</g>
</svg>
