<?xml version="1.0" encoding="utf-8"?>
<!-- Generator: Adobe Illustrator 18.0.0, SVG Export Plug-In . SVG Version: 6.00 Build 0)  -->
<!DOCTYPE svg PUBLIC "-//W3C//DTD SVG 1.1//EN" "http://www.w3.org/Graphics/SVG/1.1/DTD/svg11.dtd">
<svg version="1.1" xmlns="http://www.w3.org/2000/svg" xmlns:xlink="http://www.w3.org/1999/xlink" x="0px" y="0px"
	 viewBox="400 150 1500 1872" enable-background="new 0 0 2272 1872" xml:space="preserve">
<g id="Background">
	<g>
		<rect fill="#e6e9f3" width="0" height="0"/>
	</g>
</g>
<g id="Object">
	<g>
		<path fill="#CA061E" d="M1784.8,1040.7c0,37.7-15.3,71.8-40,96.6c-24.7,24.7-58.9,40-96.6,40H491.2c15.3,0,28.7-8.6,35.4-21.3
			c3-5.6,4.7-12,4.7-18.8V944.2c0-6.8-1.7-13.2-4.7-18.8c-6.7-12.7-20.1-21.3-35.4-21.3h1157.1
			C1723.7,904.1,1784.8,965.2,1784.8,1040.7z"/>
		<path fill="#C4BDB8" d="M1716.4,1040.7c0,31.8-12.9,60.7-33.8,81.5c-7.6,7.6-16.2,14.1-25.6,19.3c-16.5,9.2-35.6,14.4-55.9,14.4
			H526.6c3-5.6,4.7-12,4.7-18.8V944.2c0-6.8-1.7-13.2-4.7-18.8h1074.6C1664.8,925.4,1716.4,977,1716.4,1040.7z"/>
		<path fill="#FA7623" d="M1691.3,1313.8c0,37.7-15.3,71.8-40,96.6c-24.7,24.7-58.9,40-96.6,40H397.6c15.3,0,28.7-8.6,35.4-21.3
			c3-5.6,4.7-12,4.7-18.8v-192.9c0-6.8-1.7-13.2-4.7-18.8c-6.7-12.7-20.1-21.3-35.4-21.3h1157.1
			C1630.1,1177.2,1691.3,1238.4,1691.3,1313.8z"/>
		<path fill="#C4BDB8" d="M1622.9,1313.8c0,31.8-12.9,60.6-33.8,81.5c-7.6,7.6-16.2,14.1-25.7,19.3c-16.5,9.2-35.6,14.4-55.8,14.4
			H433c3-5.6,4.7-12,4.7-18.8v-192.9c0-6.8-1.7-13.2-4.7-18.8h1074.6C1571.3,1198.5,1622.9,1250.1,1622.9,1313.8z"/>
		<path fill="#0A6440" d="M1914.4,1586.9c0,37.7-15.3,71.8-40,96.6c-24.7,24.7-58.9,40-96.6,40H620.7c15.3,0,28.7-8.6,35.4-21.3
			c3-5.6,4.7-12,4.7-18.8v-192.9c0-6.8-1.7-13.2-4.7-18.8c-6.7-12.7-20.1-21.3-35.4-21.3h1157.1
			C1853.3,1450.3,1914.4,1511.5,1914.4,1586.9z"/>
		<path fill="#C4BDB8" d="M1846,1586.9c0,31.8-12.9,60.6-33.8,81.5c-7.6,7.6-16.2,14.1-25.7,19.3c-16.5,9.2-35.6,14.4-55.9,14.4
			H656.2c3-5.6,4.7-12,4.7-18.8v-192.9c0-6.8-1.7-13.2-4.7-18.8h1074.6C1794.4,1471.6,1846,1523.2,1846,1586.9z"/>
		<path fill="#E5E5E5" d="M1678.1,1075.2c0,24.7-7.8,47.6-21,66.3c-16.5,9.2-35.6,14.4-55.9,14.4H526.6c3-5.6,4.7-12,4.7-18.8V959.9
			h1031.5C1626.4,959.9,1678.1,1011.5,1678.1,1075.2z"/>
		<path fill="#E5E5E5" d="M1584.5,1348.3c0,24.7-7.8,47.6-21,66.3c-16.5,9.2-35.6,14.4-55.8,14.4H433c3-5.6,4.7-12,4.7-18.8V1233
			h1031.5C1532.8,1233,1584.5,1284.6,1584.5,1348.3z"/>
		<path fill="#E5E5E5" d="M1807.6,1621.4c0,24.7-7.8,47.6-21,66.3c-16.5,9.2-35.6,14.4-55.9,14.4H656.2c3-5.6,4.7-12,4.7-18.8
			v-177.2h1031.5C1756,1506.1,1807.6,1557.7,1807.6,1621.4z"/>
		<path fill="#73553D" d="M941.3,284.7c0,0-16.5-7.3-11.4-31.6c0,0,24.6,15.4,33.9-8.7c6-15.6-3.9-65,12.3-88.3
			c8.9-12.8,92.3-7.7,99,3.6c18.1,30.3-2.3,93.6,11.2,101c18.4,10.2,30.3-1.3,30.3-1.3s3.3,29.2-18.4,42L941.3,284.7z"/>
		<path fill="#C7CFDA" d="M1004.7,1256.7l-31.2,54.5c-6.8,11.9-7,26.4-0.6,38.5l44.4,83.7c9.9,18.6,32.5,26.3,51.6,17.7l8.7-3.9
			c19.2-8.7,28.4-30.9,20.9-50.6l-27.5-72c-3.2-8.3-3.5-17.5-0.9-26l7.6-24.5L1004.7,1256.7z"/>
		<path fill="#A7B3C1" d="M1132.3,1256.7l-31.2,54.5c-6.8,11.9-7,26.4-0.6,38.5l44.4,83.7c9.9,18.6,32.5,26.3,51.6,17.7l8.7-3.9
			c19.2-8.7,28.4-30.9,20.9-50.6l-27.5-72c-3.2-8.3-3.5-17.5-0.9-26l7.6-24.5L1132.3,1256.7z"/>
		<path fill="#CE936B" d="M1004.6,259c0,0,2.6,16.6-0.4,30.9c0,0,24.7,5.5,40.2,0c0,0-3-18.9-1.3-30.7
			C1043.1,259.2,1022.5,265.6,1004.6,259z"/>
		<path fill="#EFB891" d="M984.2,208.3c0,0,5.7,33.7,12.7,45c7,11.3,23.4,18.9,26.6,18.9c3.2,0,22.6-10.8,28-21.1
			c5.3-10.1,9.9-37.9,9.9-37.9s-17.2-5.3-25.3-19.7C1036.1,193.4,1013.4,212.5,984.2,208.3z"/>
		<path fill="#FAF34D" d="M909.2,277.5l246.8,20.8c25.7,2.2,47.4,20.1,54.4,44.9l61.2,218c5.3,18.8-9.3,37.2-28.8,36.4l-42.2-1.8
			v207.9h-357V595.8l-19.3-19.5c-19.3-19.6-27.3-47.7-21.1-74.5l40.5-176.5C850.6,295.3,878.5,274.9,909.2,277.5z"/>
		<path fill="#19598E" d="M1025.5,721.7h227c95.5,0,160.7,96.7,124.8,185.3l-147.8,364.6c-3.8,9.3-13.8,14.3-23.5,11.8l-81.1-21.3
			c-11.4-3-17.7-15.2-13.6-26.3L1221.8,944c7.3-19.3-7-39.9-27.6-39.9h-168.7c-34.8,0-63-28.2-63-63v-56.4
			C962.5,749.9,990.7,721.7,1025.5,721.7z"/>
		<path fill="#2267A8" d="M934,721.7h198.8c95.5,0,160.7,96.7,124.8,185.3l-147.8,364.6c-3.8,9.3-13.8,14.3-23.5,11.8l-81.1-21.3
			c-11.4-3-17.7-15.2-13.6-26.3L1102,944c7.3-19.3-7-39.9-27.6-39.9H934c-50.4,0-91.2-40.8-91.2-91.2v0
			C842.8,762.6,883.6,721.7,934,721.7z"/>
		<path fill="none" stroke="#231F20" stroke-width="3" stroke-miterlimit="10" d="M843.5,595.8l187.8,14c9.3,0.7,17.4-6.4,17.9-15.7
			l2.9-52.2c0.4-7.1-3.8-13.7-10.4-16.4l-114.3-46.2c-6.3-2.5-10.4-8.7-10.4-15.5v-79.2"/>
		<line fill="#FFFFFF" stroke="#231F20" stroke-width="3" stroke-miterlimit="10" x1="1200.6" y1="595.8" x2="1125.2" y2="563.2"/>
		<path fill="#AEE1FE" d="M1147.8,412.3l-8.1,155.3L1012,534.2c-8.1-2.1-13.5-9.8-12.8-18.1l10.6-125.3c0.9-11,11.8-18.3,22.3-15
			L1147.8,412.3z"/>
		<path fill="#81C3E6" d="M1253.9,398.6l-11.4,121.7c-0.5,4.8-3.6,8.9-8.1,10.7l-94.7,36.6l8.1-155.3l89.7-27
			C1246.2,382.7,1254.7,389.7,1253.9,398.6z"/>
		<path fill="#EFB891" d="M1049.4,591.8l95.9-10.8c1.5-0.2,2.7-1.3,2.9-2.8l4.1-28.1c0.3-1.8-1-3.5-2.8-3.7
			c-9.2-1.4-35.1-6-35.9-5.8c-2.8,0.7-1.9,2.7-3.2,5.7c-1.1,2.5-4.6,2.6-5.9,0.3l0,0c-0.5-0.9-1.3-1.5-2.3-1.6l-11.7-2.1
			c-1.6-0.3-3.1,0.6-3.7,2.1l-2.3,6c-0.5,1.3-1.8,2.2-3.2,2.1l-29.7-1.3L1049.4,591.8z"/>
		<line fill="none" stroke="#231F20" stroke-width="3" stroke-miterlimit="10" x1="1257.6" y1="907" x2="1160.1" y2="1147.5"/>
	</g>
</g>
</svg>
