<svg version="1.1" id="Layer_1" xmlns="http://www.w3.org/2000/svg" xmlns:xlink="http://www.w3.org/1999/xlink" x="0px" y="0px" viewBox="0 0 503.60699462890625 503.60699462890625" style="enable-background:new 0 0 503.607 503.607;" xml:space="preserve" width="100%" height="100%" ><rect id="svgEditorBackground" x="0" y="0" width="503.607" height="503.607" style="fill:none;stroke:none;"/>
<g transform="translate(1 1)">
	<g>
		<g>
			<path d="M32.574,443.852h193.049c4.197,0,8.393-3.357,8.393-8.393V32.574c0-5.036-3.357-8.393-8.393-8.393H32.574     c-5.036,0-8.393,3.357-8.393,8.393v402.885C24.18,440.495,27.538,443.852,32.574,443.852z M40.967,40.967h176.262v386.098H40.967     V40.967z" style="fill:#1DA1F2;"/>
			<path d="M275.984,443.852h193.049c4.197,0,8.393-3.357,8.393-8.393V32.574c0-5.036-3.357-8.393-8.393-8.393H275.984     c-5.036,0-8.393,3.357-8.393,8.393v402.885C267.59,440.495,270.948,443.852,275.984,443.852z M284.377,40.967h176.262v386.098     H284.377V40.967z" style="fill:#1DA1F2;"/>
			<path d="M477.426-1H267.59c-6.547,0-12.383,2.302-16.787,6.167C246.4,1.302,240.564-1,234.016-1H24.18C9.911-1-1,9.911-1,24.18     v419.672c0,11.302,6.849,20.492,16.787,23.827v14.783c0,10.911,9.233,20.144,20.144,20.144H50.2     c7.554,0,15.108-4.197,18.466-10.911l11.331-22.662h99.043l11.331,22.662c3.357,6.715,10.072,10.911,17.626,10.911h14.269     c10.911,0,20.144-9.233,20.144-20.144v-13.43h8.393h8.393v13.43c0,10.911,9.233,20.144,20.144,20.144h14.269     c7.554,0,15.108-4.197,18.466-10.911l11.331-22.662h99.043l11.331,22.662c3.357,6.715,10.072,10.911,17.626,10.911h14.269     c10.911,0,20.144-9.233,20.984-20.144v-15.215c9.155-3.649,15.948-12.549,15.948-23.395V24.18C502.607,9.911,491.695-1,477.426-1     z M267.59,15.787h209.836c5.036,0,8.393,3.357,8.393,8.393v419.672c0,5.036-3.357,8.393-8.393,8.393h-49.521H317.951H267.59     h-8.393V24.18C259.197,19.144,262.554,15.787,267.59,15.787z M15.787,24.18c0-5.036,3.357-8.393,8.393-8.393h209.836     c5.036,0,8.393,3.357,8.393,8.393v428.066h-8.393h-50.361H74.541H24.18c-5.036,0-8.393-3.357-8.393-8.393V24.18z M53.557,484.141     c-0.839,0.839-1.679,1.679-3.357,1.679H35.931c-1.679,0-3.357-1.679-3.357-3.357v-13.43h28.538L53.557,484.141z M225.623,482.462     c0,1.679-1.679,3.357-3.357,3.357h-14.269c-1.679,0-2.518-0.839-3.357-1.679l-7.554-15.108h28.538V482.462z M296.967,484.141     c-0.839,0.839-1.679,1.679-3.357,1.679h-14.269c-1.679,0-3.357-1.679-3.357-3.357v-13.43h28.538L296.967,484.141z      M469.033,482.462c0,1.679-1.679,3.357-3.357,3.357h-14.269c-1.679,0-2.518-0.839-3.357-1.679l-7.554-15.108h28.538V482.462z" style="fill:#1DA1F2;"/>
			<path d="M183.656,250.803c-5.036000000000001,0,-8.393,3.3569999999999993,-8.393,8.393000000000029v33.57400000000001c0,5.036000000000001,3.3569999999999993,8.392999999999972,8.393,8.392999999999972c4.197000000000003,0,8.393,-3.3570000000000277,8.393,-8.393000000000029v-33.57400000000001c0,-5.034999999999968,-3.3569999999999993,-8.392999999999972,-8.393,-8.392999999999972Z" style="fill:#1DA1F2;"/>
			<path d="M200.443,49.361h-16.787c-5.036,0-8.393,3.357-8.393,8.393s3.357,8.393,8.393,8.393h16.787     c4.197,0,8.393-3.357,8.393-8.393S205.479,49.361,200.443,49.361z" style="fill:#1DA1F2;"/>
			<path d="M200.443,74.541h-8.393c-5.036,0-8.393,3.357-8.393,8.393s3.357,8.393,8.393,8.393h8.393     c4.197,0,8.393-3.357,8.393-8.393S205.479,74.541,200.443,74.541z" style="fill:#1DA1F2;"/>
			<path d="M74.541,401.885H57.754c-5.036,0-8.393,3.357-8.393,8.393s3.357,8.393,8.393,8.393h16.787     c4.197,0,8.393-3.357,8.393-8.393S79.577,401.885,74.541,401.885z" style="fill:#1DA1F2;"/>
			<path d="M57.754,393.492h8.393c4.197,0,8.393-3.357,8.393-8.393c0-5.036-3.357-8.393-8.393-8.393h-8.393     c-5.036,0-8.393,3.357-8.393,8.393C49.361,390.134,52.718,393.492,57.754,393.492z" style="fill:#1DA1F2;"/>
			
			
			<path d="M183.656,183.656c0,-5.036000000000001,-3.3569999999999993,-8.393,-8.393,-8.393h-92.32900000000001c-5.036000000000001,0,-8.393,3.3569999999999993,-8.393,8.393s3.3569999999999993,8.393,8.393,8.393h92.328c4.197000000000003,0,8.394000000000005,-3.3569999999999993,8.394000000000005,-8.393Z" transform="matrix(0.737045, 0, 0, 1, 20.5737, 0)" style="fill:#1DA1F2;"/>
			<path d="M427.066,250.803c-5.036,0-8.393,3.357-8.393,8.393v33.574c0,5.036,3.357,8.393,8.393,8.393     c4.197,0,8.393-3.357,8.393-8.393v-33.574C435.459,254.161,432.102,250.803,427.066,250.803z" style="fill:#1DA1F2;"/>
			<path d="M443.852,49.361h-16.787c-5.036,0-8.393,3.357-8.393,8.393s3.357,8.393,8.393,8.393h16.787     c4.197,0,8.393-3.357,8.393-8.393S448.888,49.361,443.852,49.361z" style="fill:#1DA1F2;"/>
			<path d="M443.852,74.541h-8.393c-5.036,0-8.393,3.357-8.393,8.393s3.357,8.393,8.393,8.393h8.393     c4.197,0,8.393-3.357,8.393-8.393S448.888,74.541,443.852,74.541z" style="fill:#1DA1F2;"/>
			<path d="M317.951,401.885h-16.787c-5.036,0-8.393,3.357-8.393,8.393s3.357,8.393,8.393,8.393h16.787     c4.197,0,8.393-3.357,8.393-8.393S322.987,401.885,317.951,401.885z" style="fill:#1DA1F2;"/>
			<path d="M301.164,393.492h8.393c4.197,0,8.393-3.357,8.393-8.393c0-5.036-3.357-8.393-8.393-8.393h-8.393     c-5.036,0-8.393,3.357-8.393,8.393C292.77,390.134,296.128,393.492,301.164,393.492z" style="fill:#1DA1F2;"/>
			<path d="M326.344,124.902h92.32800000000003c4.197000000000003,0,8.393000000000029,-3.3569999999999993,8.393000000000029,-8.393s-3.3570000000000277,-8.393,-8.393000000000029,-8.393h-92.32799999999997c-5.036000000000001,0,-8.393000000000029,3.3569999999999993,-8.393000000000029,8.393s3.356999999999971,8.393,8.392999999999972,8.393Z" transform="matrix(-0.00221331, 0.916633, -0.916633, -0.00221331, 189.669, -200.296)" style="fill:#1DA1F2;fill-opacity:0.9;"/>
			<path d="M326.344,158.475h92.32800000000003c4.197000000000003,0,8.393000000000029,-3.3569999999999993,8.393000000000029,-8.393s-3.3570000000000277,-8.393,-8.393000000000029,-8.393h-92.32799999999997c-5.036000000000001,0,-8.393000000000029,3.3569999999999993,-8.393000000000029,8.393s3.356999999999971,8.393,8.392999999999972,8.393Z" transform="matrix(0.0136747, 0.908491, -0.908491, 0.0136747, 454.054, -161.098)" style="fill:#1DA1F2;"/>
			<path d="M427.066,183.656c0,-5.036000000000001,-3.3570000000000277,-8.393,-8.392999999999972,-8.393h-92.32799999999997c-5.036000000000001,0,-8.393000000000029,3.3569999999999993,-8.393000000000029,8.393s3.3570000000000277,8.393,8.393000000000029,8.393h92.32799999999997c4.196000000000026,0,8.392999999999972,-3.3569999999999993,8.392999999999972,-8.393Z" transform="matrix(0.737042, 0, 0, 1, 84.5806, 37.4457)" style="fill:#1DA1F2;"/>
		</g>
	</g>
</g>
<g>
</g>
<g>
</g>
<g>
</g>
<g>
</g>
<g>
</g>
<g>
</g>
<g>
</g>
<g>
</g>
<g>
</g>
<g>
</g>
<g>
</g>
<g>
</g>
<g>
</g>
<g>
</g>
<g>
</g>
</svg>