<svg id="svg" xmlns="http://www.w3.org/2000/svg" xmlns:xlink="http://www.w3.org/1999/xlink" width="400" height="36.29976580796253" viewBox="0, 0, 400,36.29976580796253"><g id="svgg"><path id="path0" d="M313.125 2.619 C 312.873 2.658,312.667 2.750,312.667 2.825 C 312.667 2.901,312.335 3.012,311.930 3.073 C 311.525 3.133,311.104 3.292,310.993 3.425 C 310.883 3.558,310.695 3.667,310.575 3.667 C 310.455 3.667,310.258 3.760,310.137 3.875 C 310.016 3.990,309.719 4.185,309.476 4.310 C 308.520 4.803,305.833 7.701,305.833 8.239 C 305.833 8.355,305.726 8.667,305.595 8.933 C 305.463 9.199,305.332 9.529,305.303 9.667 C 305.274 9.804,305.196 9.957,305.130 10.007 C 305.064 10.056,304.966 10.506,304.911 11.007 C 304.856 11.507,304.768 12.029,304.716 12.167 C 304.663 12.304,304.596 13.429,304.566 14.667 C 304.537 15.904,304.489 17.342,304.461 17.861 C 304.433 18.380,304.452 18.779,304.504 18.748 C 304.555 18.716,304.587 19.810,304.576 21.178 C 304.564 22.547,304.608 23.667,304.673 23.667 C 304.737 23.667,304.842 24.192,304.905 24.833 C 304.968 25.475,305.091 26.000,305.177 26.000 C 305.263 26.000,305.336 26.131,305.339 26.292 C 305.342 26.452,305.490 26.883,305.667 27.250 C 305.844 27.617,305.991 27.976,305.994 28.048 C 306.006 28.317,306.780 29.248,307.813 30.234 C 309.306 31.661,309.262 31.629,310.583 32.321 C 310.858 32.465,311.121 32.631,311.167 32.689 C 311.212 32.747,311.700 32.887,312.250 32.999 C 312.800 33.112,313.380 33.273,313.539 33.357 C 313.921 33.558,318.735 33.556,319.118 33.354 C 319.282 33.268,319.727 33.115,320.106 33.015 C 321.309 32.695,322.552 32.051,323.672 31.167 C 324.399 30.593,325.833 29.209,325.833 29.082 C 325.833 29.046,326.058 28.683,326.333 28.276 C 326.608 27.868,326.833 27.449,326.833 27.344 C 326.833 27.239,326.985 26.856,327.170 26.493 C 327.355 26.130,327.473 25.833,327.432 25.833 C 327.390 25.833,327.434 25.590,327.530 25.292 C 327.625 24.994,327.719 24.520,327.740 24.238 C 327.760 23.956,327.827 23.646,327.887 23.548 C 328.123 23.166,327.889 11.503,327.637 11.082 C 327.583 10.991,327.486 10.598,327.421 10.208 C 327.357 9.819,327.244 9.500,327.171 9.500 C 327.097 9.500,326.988 9.237,326.928 8.917 C 326.867 8.596,326.755 8.333,326.679 8.333 C 326.564 8.333,326.401 7.998,326.272 7.496 C 326.146 7.002,323.149 4.167,322.754 4.167 C 322.634 4.167,322.492 4.054,322.440 3.917 C 322.387 3.779,322.191 3.667,322.005 3.667 C 321.819 3.667,321.667 3.595,321.667 3.506 C 321.667 3.418,321.348 3.263,320.958 3.160 C 320.569 3.058,319.929 2.868,319.536 2.737 C 318.856 2.512,314.380 2.429,313.125 2.619 M384.167 2.853 C 383.571 3.044,382.753 3.356,382.348 3.545 C 381.944 3.734,381.513 3.889,381.390 3.889 C 381.267 3.889,381.167 3.954,381.167 4.033 C 381.167 4.112,381.039 4.226,380.882 4.286 C 380.382 4.478,379.341 5.432,378.667 6.316 C 378.438 6.616,378.171 6.949,378.075 7.056 C 377.765 7.399,377.141 8.814,377.052 9.374 C 377.005 9.672,376.908 10.029,376.835 10.167 C 376.630 10.556,376.621 14.285,376.825 14.411 C 376.921 14.471,377.000 14.723,377.000 14.971 C 377.000 15.219,377.150 15.701,377.333 16.044 C 377.517 16.386,377.667 16.761,377.667 16.879 C 377.667 17.149,379.558 19.167,379.811 19.167 C 379.915 19.167,380.000 19.237,380.000 19.322 C 380.000 19.408,380.169 19.529,380.375 19.592 C 380.581 19.655,380.863 19.803,381.000 19.922 C 381.137 20.041,381.531 20.191,381.874 20.254 C 382.216 20.318,382.461 20.428,382.418 20.498 C 382.330 20.641,383.135 20.833,383.821 20.833 C 384.066 20.833,384.338 20.900,384.425 20.982 C 384.512 21.063,385.483 21.219,386.583 21.329 C 387.683 21.438,388.655 21.596,388.742 21.680 C 388.829 21.764,389.095 21.833,389.334 21.833 C 390.713 21.833,391.609 24.280,390.625 25.359 C 389.423 26.679,386.333 26.926,383.000 25.971 C 382.587 25.853,382.212 25.713,382.167 25.660 C 382.121 25.607,381.837 25.465,381.536 25.343 C 381.235 25.221,381.027 25.084,381.074 25.038 C 381.120 24.991,380.926 24.829,380.643 24.677 L 380.128 24.401 377.731 26.801 C 374.870 29.663,374.906 29.487,376.896 30.917 C 377.152 31.100,377.510 31.377,377.694 31.531 C 377.877 31.686,378.247 31.861,378.515 31.920 C 378.803 31.983,378.958 32.101,378.892 32.206 C 378.832 32.304,378.850 32.342,378.934 32.291 C 379.018 32.239,379.348 32.307,379.668 32.441 C 379.988 32.576,380.267 32.688,380.288 32.690 C 380.309 32.693,380.721 32.800,381.205 32.929 C 381.688 33.057,382.350 33.164,382.675 33.165 C 383.000 33.166,383.345 33.245,383.441 33.341 C 383.550 33.450,384.670 33.509,386.433 33.499 C 389.781 33.478,389.838 33.475,389.751 33.334 C 389.713 33.274,390.257 33.135,390.958 33.026 C 391.660 32.917,392.275 32.763,392.325 32.685 C 392.376 32.606,392.660 32.489,392.958 32.424 C 393.256 32.360,393.500 32.252,393.500 32.185 C 393.500 32.117,393.762 31.959,394.083 31.833 C 394.404 31.707,394.667 31.543,394.667 31.469 C 394.667 31.394,394.761 31.333,394.876 31.333 C 395.159 31.333,396.652 29.894,397.167 29.125 C 397.396 28.783,397.640 28.502,397.708 28.501 C 397.777 28.501,397.833 28.421,397.833 28.325 C 397.833 28.229,397.980 27.848,398.159 27.477 C 398.338 27.107,398.535 26.454,398.597 26.027 C 398.658 25.600,398.754 25.175,398.808 25.083 C 398.958 24.830,398.990 22.833,398.844 22.833 C 398.774 22.833,398.670 22.252,398.614 21.542 C 398.551 20.745,398.382 19.997,398.173 19.590 C 397.986 19.227,397.833 18.850,397.833 18.754 C 397.833 18.566,396.349 16.792,396.104 16.688 C 396.024 16.653,395.818 16.484,395.646 16.313 C 395.474 16.141,395.291 16.000,395.240 16.000 C 395.188 16.000,394.719 15.797,394.198 15.548 C 393.095 15.023,393.245 15.067,391.750 14.822 C 391.108 14.717,390.463 14.571,390.316 14.496 C 390.168 14.421,389.418 14.311,388.649 14.251 C 387.880 14.191,387.063 14.076,386.833 13.996 C 386.604 13.915,386.090 13.765,385.692 13.664 C 385.293 13.562,385.007 13.438,385.056 13.388 C 385.106 13.339,384.961 13.126,384.734 12.916 C 384.507 12.706,384.336 12.470,384.354 12.392 C 384.372 12.314,384.326 12.111,384.252 11.942 C 384.167 11.746,384.193 11.586,384.323 11.506 C 384.436 11.436,384.522 11.332,384.514 11.273 C 384.474 10.975,384.536 10.855,384.958 10.402 C 385.789 9.510,389.167 8.624,389.167 9.298 C 389.167 9.370,389.298 9.432,389.458 9.436 C 390.754 9.469,392.113 9.960,392.874 10.669 C 393.452 11.207,393.605 11.109,396.114 8.583 C 397.435 7.254,398.442 6.167,398.352 6.167 C 398.262 6.167,398.143 6.021,398.086 5.842 C 398.029 5.663,397.856 5.477,397.700 5.427 C 397.544 5.378,397.207 5.143,396.952 4.905 C 396.271 4.274,393.993 3.182,393.103 3.060 C 392.680 3.002,392.333 2.902,392.333 2.838 C 392.333 2.434,385.433 2.447,384.167 2.853 M277.395 3.042 C 277.450 3.248,277.496 10.110,277.498 18.292 L 277.500 33.167 281.375 33.167 L 285.250 33.167 285.205 25.887 L 285.160 18.608 285.497 18.996 C 285.682 19.210,285.833 19.452,285.833 19.536 C 285.833 19.619,286.092 20.025,286.408 20.439 C 286.724 20.853,287.143 21.523,287.339 21.929 C 287.536 22.335,287.765 22.667,287.848 22.667 C 287.932 22.667,288.000 22.741,288.000 22.832 C 288.000 22.922,288.300 23.429,288.666 23.957 C 289.033 24.485,289.333 25.010,289.333 25.125 C 289.333 25.240,289.408 25.333,289.500 25.333 C 289.592 25.333,289.667 25.409,289.667 25.502 C 289.667 25.594,289.929 26.044,290.250 26.500 C 290.571 26.956,290.833 27.358,290.833 27.393 C 290.833 27.467,292.230 29.604,292.587 30.076 C 292.722 30.255,292.833 30.498,292.833 30.617 C 292.833 30.736,292.901 30.833,292.984 30.833 C 293.066 30.833,293.210 31.040,293.302 31.292 C 293.394 31.544,293.649 31.938,293.869 32.167 C 294.088 32.396,294.317 32.715,294.378 32.875 C 294.479 33.140,294.810 33.167,297.996 33.167 L 301.502 33.167 301.459 17.958 L 301.417 2.750 297.535 2.750 L 293.653 2.750 293.663 9.970 C 293.674 17.519,293.661 17.634,292.975 16.280 C 292.781 15.897,292.576 15.546,292.519 15.500 C 292.298 15.322,291.500 14.056,291.500 13.884 C 291.500 13.784,291.387 13.659,291.250 13.606 C 291.112 13.554,291.000 13.396,291.000 13.255 C 291.000 13.115,290.943 13.000,290.874 13.000 C 290.805 13.000,290.640 12.756,290.508 12.458 C 290.277 11.936,290.159 11.759,289.708 11.256 C 289.594 11.128,289.500 10.978,289.500 10.921 C 289.500 10.827,288.180 8.803,287.866 8.416 C 287.792 8.324,287.402 7.687,286.999 7.000 C 286.597 6.312,286.068 5.487,285.823 5.167 C 285.578 4.846,285.325 4.415,285.261 4.208 C 285.197 4.002,285.074 3.833,284.989 3.833 C 284.903 3.833,284.831 3.740,284.828 3.625 C 284.805 2.760,284.405 2.667,280.746 2.667 L 277.294 2.667 277.395 3.042 M328.500 6.166 L 328.500 9.667 332.250 9.667 L 336.000 9.667 336.000 21.417 L 336.000 33.167 339.917 33.167 L 343.833 33.167 343.833 21.417 L 343.833 9.667 347.587 9.667 L 351.340 9.667 351.295 6.208 L 351.250 2.750 339.875 2.707 L 328.500 2.664 328.500 6.166 M353.833 17.915 L 353.833 33.167 364.337 33.167 L 374.840 33.167 374.795 29.792 L 374.750 26.417 368.125 26.373 L 361.500 26.330 361.500 23.831 L 361.500 21.333 367.235 21.333 C 372.608 21.333,372.967 21.315,372.915 21.042 C 372.884 20.881,372.853 19.306,372.846 17.542 L 372.833 14.333 367.167 14.333 L 361.500 14.333 361.500 12.002 L 361.500 9.670 368.125 9.627 L 374.750 9.583 374.750 6.167 L 374.750 2.750 364.292 2.707 L 353.833 2.664 353.833 17.915 M318.041 9.754 C 318.201 9.817,318.290 9.935,318.239 10.017 C 318.188 10.100,318.235 10.167,318.342 10.167 C 318.605 10.167,319.327 10.866,319.330 11.125 C 319.332 11.240,319.396 11.333,319.472 11.333 C 319.549 11.333,319.622 11.427,319.636 11.542 C 319.649 11.656,319.739 12.237,319.836 12.833 C 320.213 15.169,320.094 23.206,319.667 24.197 C 319.331 24.978,318.975 25.409,318.004 26.213 C 317.662 26.496,314.803 26.492,314.708 26.208 C 314.670 26.094,314.535 26.000,314.409 26.000 C 313.955 26.000,313.173 25.008,312.808 23.969 C 312.350 22.666,312.209 13.135,312.640 12.615 C 312.762 12.468,312.817 12.275,312.762 12.185 C 312.706 12.096,312.737 11.976,312.831 11.918 C 312.924 11.861,313.000 11.668,313.000 11.490 C 313.000 10.125,316.190 9.026,318.041 9.754 " stroke="none" fill="#bc2c04" fill-rule="evenodd"></path><path id="path1" d="M174.708 2.611 C 174.410 2.653,174.167 2.748,174.167 2.822 C 174.167 2.896,173.883 2.994,173.536 3.041 C 172.913 3.124,171.328 3.764,171.167 3.996 C 171.121 4.063,170.901 4.213,170.677 4.331 C 169.684 4.855,168.078 6.546,167.900 7.257 C 167.847 7.469,167.705 7.680,167.584 7.727 C 167.463 7.773,167.312 8.060,167.246 8.364 C 167.181 8.668,167.043 9.022,166.939 9.151 C 166.662 9.494,166.679 15.079,166.958 15.358 C 167.073 15.473,167.167 15.690,167.167 15.842 C 167.167 16.725,169.355 19.374,170.276 19.605 C 170.491 19.659,170.667 19.755,170.667 19.818 C 170.667 19.957,171.668 20.333,172.040 20.333 C 172.186 20.333,172.331 20.410,172.362 20.503 C 172.393 20.596,172.812 20.719,173.293 20.776 C 173.773 20.833,174.167 20.936,174.167 21.004 C 174.167 21.073,175.179 21.224,176.417 21.339 C 177.654 21.455,178.667 21.614,178.667 21.692 C 178.667 21.770,178.886 21.833,179.155 21.833 C 179.423 21.833,179.755 21.946,179.893 22.083 C 180.030 22.221,180.218 22.333,180.310 22.333 C 180.402 22.333,180.525 22.483,180.583 22.667 C 180.642 22.850,180.759 23.000,180.845 23.000 C 180.930 23.000,181.000 23.399,181.000 23.887 C 181.000 24.845,180.646 25.396,179.583 26.090 C 178.978 26.486,174.258 26.588,173.809 26.216 C 173.676 26.105,173.252 25.964,172.867 25.903 C 172.482 25.841,172.167 25.731,172.167 25.658 C 172.167 25.585,171.911 25.441,171.598 25.338 C 171.285 25.235,170.988 25.042,170.937 24.909 C 170.886 24.776,170.729 24.667,170.589 24.667 C 170.448 24.667,170.333 24.585,170.333 24.486 C 170.333 24.387,170.257 24.331,170.164 24.362 C 169.892 24.453,165.167 29.191,165.167 29.373 C 165.167 29.561,166.249 30.622,166.826 31.000 C 167.036 31.137,167.292 31.330,167.395 31.427 C 167.677 31.693,169.441 32.500,169.740 32.500 C 169.883 32.500,170.000 32.567,170.000 32.649 C 170.000 32.732,170.656 32.893,171.458 33.009 C 172.260 33.124,173.005 33.287,173.114 33.370 C 173.383 33.578,179.512 33.581,179.646 33.374 C 179.703 33.285,180.200 33.157,180.750 33.090 C 181.300 33.023,182.065 32.825,182.449 32.651 C 182.834 32.476,183.265 32.333,183.408 32.333 C 183.550 32.333,183.667 32.267,183.667 32.187 C 183.667 32.106,183.885 31.950,184.153 31.839 C 184.420 31.728,184.870 31.438,185.153 31.194 C 185.435 30.950,185.847 30.621,186.067 30.462 C 186.662 30.036,187.955 28.110,188.193 27.294 C 188.307 26.903,188.479 26.530,188.575 26.464 C 188.812 26.303,188.798 21.490,188.559 20.974 C 188.459 20.759,188.289 20.208,188.179 19.750 C 188.070 19.292,187.910 18.892,187.824 18.861 C 187.737 18.831,187.667 18.697,187.667 18.564 C 187.667 18.431,187.554 18.280,187.417 18.227 C 187.279 18.174,187.167 18.024,187.167 17.892 C 187.167 17.553,185.857 16.336,185.184 16.050 C 184.873 15.917,184.511 15.702,184.380 15.571 C 184.250 15.440,184.013 15.333,183.855 15.333 C 183.696 15.333,183.495 15.262,183.408 15.175 C 183.321 15.088,182.688 14.933,182.000 14.830 C 181.313 14.727,180.634 14.582,180.493 14.508 C 180.352 14.435,179.602 14.323,178.827 14.261 C 178.051 14.199,177.267 14.087,177.083 14.013 C 176.900 13.939,176.389 13.792,175.949 13.687 C 173.303 13.057,174.126 9.500,176.918 9.500 C 177.227 9.500,177.527 9.425,177.583 9.333 C 177.709 9.130,178.779 9.111,178.902 9.310 C 178.951 9.388,179.444 9.494,179.998 9.544 C 181.021 9.637,182.065 10.070,182.707 10.669 C 182.903 10.851,183.201 11.000,183.371 11.000 C 183.669 11.000,188.333 6.492,188.333 6.204 C 188.333 5.823,186.849 4.633,185.583 4.000 C 185.125 3.771,184.713 3.536,184.667 3.478 C 184.621 3.421,184.133 3.277,183.583 3.159 C 183.033 3.041,182.479 2.865,182.352 2.766 C 182.119 2.586,175.797 2.458,174.708 2.611 M133.167 17.914 L 133.167 33.167 143.417 33.167 L 153.667 33.167 153.667 29.750 L 153.667 26.333 147.418 26.333 L 141.169 26.333 141.126 14.542 L 141.083 2.750 137.125 2.705 L 133.167 2.661 133.167 17.914 M156.167 17.917 L 156.167 33.167 160.083 33.167 L 164.000 33.167 164.000 17.917 L 164.000 2.667 160.083 2.667 L 156.167 2.667 156.167 17.917 M189.833 6.166 L 189.833 9.667 193.583 9.667 L 197.333 9.667 197.333 21.417 L 197.333 33.167 201.333 33.167 L 205.333 33.167 205.333 21.420 L 205.333 9.673 209.042 9.628 L 212.750 9.583 212.750 6.167 L 212.750 2.750 201.292 2.707 L 189.833 2.664 189.833 6.166 M215.167 17.917 L 215.167 33.167 225.667 33.167 L 236.167 33.167 236.167 29.750 L 236.167 26.333 229.583 26.333 L 223.000 26.333 223.000 23.833 L 223.000 21.333 228.667 21.333 L 234.333 21.333 234.333 17.833 L 234.333 14.333 228.667 14.333 L 223.000 14.333 223.000 12.000 L 223.000 9.667 229.583 9.667 L 236.167 9.667 236.167 6.167 L 236.167 2.667 225.667 2.667 L 215.167 2.667 215.167 17.917 M239.500 17.917 L 239.500 33.167 243.417 33.167 L 247.333 33.167 247.333 25.967 L 247.333 18.768 247.833 19.556 C 248.108 19.990,248.333 20.411,248.333 20.492 C 248.333 20.573,248.390 20.664,248.458 20.694 C 248.629 20.770,249.500 22.123,249.500 22.312 C 249.500 22.396,249.612 22.508,249.750 22.560 C 249.887 22.613,250.000 22.766,250.000 22.900 C 250.000 23.033,250.097 23.242,250.215 23.363 C 250.333 23.484,250.611 23.883,250.833 24.250 C 251.056 24.617,251.334 25.016,251.452 25.137 C 251.570 25.258,251.667 25.428,251.667 25.514 C 251.667 25.600,251.929 26.044,252.250 26.500 C 252.571 26.956,252.833 27.402,252.833 27.490 C 252.833 27.578,252.927 27.710,253.042 27.783 C 253.291 27.943,253.585 28.390,253.922 29.125 C 254.059 29.423,254.237 29.667,254.318 29.667 C 254.398 29.667,254.511 29.854,254.568 30.083 C 254.626 30.313,254.737 30.500,254.816 30.500 C 254.895 30.500,255.059 30.744,255.181 31.042 C 255.303 31.340,255.481 31.674,255.576 31.786 C 255.860 32.117,256.072 32.415,256.268 32.759 C 256.441 33.062,256.686 33.086,259.976 33.128 L 263.500 33.173 263.500 17.920 L 263.500 2.667 259.583 2.667 L 255.667 2.667 255.667 9.833 C 255.667 14.500,255.609 17.000,255.500 17.000 C 255.408 17.000,255.333 16.906,255.333 16.792 C 255.333 16.677,255.033 16.151,254.666 15.623 C 254.300 15.095,254.000 14.623,254.000 14.575 C 254.000 14.526,253.924 14.395,253.831 14.285 C 253.481 13.868,252.833 12.812,252.833 12.659 C 252.833 12.572,252.759 12.500,252.669 12.500 C 252.578 12.500,252.392 12.256,252.256 11.958 C 251.977 11.351,251.680 10.870,251.386 10.548 C 251.277 10.429,251.141 10.182,251.083 9.999 C 251.025 9.816,250.908 9.667,250.822 9.667 C 250.737 9.667,250.667 9.595,250.667 9.507 C 250.667 9.354,250.019 8.298,249.669 7.882 C 249.576 7.771,249.500 7.606,249.500 7.515 C 249.500 7.424,249.402 7.290,249.282 7.217 C 249.162 7.143,248.965 6.840,248.845 6.542 C 248.725 6.244,248.560 6.000,248.480 6.000 C 248.399 6.000,248.333 5.891,248.333 5.758 C 248.333 5.625,248.235 5.457,248.115 5.383 C 247.995 5.310,247.799 5.006,247.678 4.708 C 247.558 4.410,247.394 4.167,247.313 4.167 C 247.233 4.167,247.167 4.066,247.167 3.942 C 247.167 3.819,247.017 3.545,246.833 3.333 C 246.650 3.122,246.500 2.885,246.500 2.808 C 246.500 2.730,244.925 2.667,243.000 2.667 L 239.500 2.667 239.500 17.917 M85.583 10.332 C 83.903 10.556,84.000 10.391,84.000 13.019 C 84.000 15.279,83.843 15.857,83.417 15.167 C 83.289 14.961,80.721 14.944,80.595 15.148 C 80.545 15.229,80.240 15.345,79.919 15.405 C 79.597 15.466,79.333 15.587,79.333 15.674 C 79.333 15.762,79.231 15.833,79.107 15.833 C 78.765 15.833,77.220 17.357,77.079 17.833 C 77.011 18.063,76.891 18.292,76.812 18.343 C 75.343 19.292,76.917 26.167,78.603 26.167 C 78.730 26.167,78.833 26.238,78.833 26.326 C 78.833 26.413,79.096 26.534,79.417 26.594 C 79.737 26.655,80.000 26.770,80.000 26.852 C 80.000 27.057,82.123 27.039,82.250 26.833 C 82.307 26.742,82.487 26.667,82.651 26.667 C 82.815 26.667,83.122 26.517,83.333 26.333 C 83.791 25.936,84.000 25.910,84.000 26.250 C 84.000 26.455,84.287 26.500,85.583 26.500 L 87.167 26.500 87.167 18.333 L 87.167 10.167 86.792 10.194 C 86.585 10.209,86.042 10.271,85.583 10.332 M96.667 10.328 C 96.254 10.392,95.748 10.503,95.542 10.575 L 95.167 10.706 95.167 18.853 L 95.167 27.000 95.633 27.000 C 95.890 27.000,96.178 26.922,96.272 26.828 C 96.502 26.598,98.992 26.592,99.221 26.821 C 99.434 27.034,101.441 27.064,101.570 26.855 C 101.619 26.776,101.961 26.662,102.330 26.603 C 102.698 26.544,103.000 26.427,103.000 26.343 C 103.000 26.258,103.169 26.141,103.375 26.082 C 103.923 25.926,105.467 24.199,105.595 23.599 C 105.656 23.315,105.785 22.984,105.883 22.863 C 106.118 22.571,106.116 19.091,105.880 18.803 C 105.780 18.682,105.614 18.265,105.510 17.875 C 105.406 17.485,105.248 17.167,105.160 17.167 C 105.072 17.167,105.000 17.069,105.000 16.951 C 105.000 16.832,104.773 16.550,104.495 16.326 C 104.217 16.101,103.884 15.822,103.754 15.706 C 103.625 15.590,103.288 15.449,103.006 15.393 C 102.724 15.336,102.453 15.225,102.403 15.145 C 102.286 14.955,100.167 14.956,100.167 15.146 C 100.167 15.226,99.937 15.338,99.657 15.394 C 99.377 15.450,99.020 15.623,98.865 15.778 C 98.600 16.043,98.578 15.884,98.500 13.155 L 98.417 10.250 97.917 10.231 C 97.642 10.220,97.079 10.264,96.667 10.328 M4.606 15.116 C 4.533 15.189,4.049 15.286,3.529 15.332 L 2.583 15.417 2.583 23.583 L 2.583 31.750 3.747 31.800 C 5.790 31.888,5.667 32.057,5.667 29.163 C 5.667 26.720,5.815 26.129,6.250 26.833 C 6.307 26.925,6.869 27.000,7.500 27.000 C 8.131 27.000,8.693 26.925,8.750 26.833 C 8.807 26.742,9.017 26.664,9.218 26.661 C 10.848 26.638,12.951 24.376,13.126 22.458 C 13.174 21.931,13.278 21.500,13.356 21.500 C 13.558 21.500,13.537 20.209,13.333 20.083 C 13.242 20.027,13.167 19.733,13.167 19.432 C 13.167 18.271,12.114 16.319,11.292 15.955 C 11.040 15.843,10.833 15.699,10.833 15.634 C 10.833 15.568,10.571 15.466,10.250 15.406 C 9.929 15.345,9.667 15.230,9.667 15.148 C 9.667 14.943,7.544 14.961,7.417 15.167 C 7.360 15.258,7.178 15.333,7.013 15.333 C 6.847 15.333,6.521 15.483,6.288 15.667 C 5.741 16.097,5.699 16.089,5.636 15.542 C 5.583 15.078,4.919 14.804,4.606 15.116 M18.762 15.148 C 18.711 15.229,18.407 15.345,18.085 15.405 C 17.763 15.466,17.500 15.568,17.500 15.634 C 17.500 15.699,17.283 15.848,17.018 15.965 C 16.290 16.288,15.167 17.484,15.167 17.937 C 15.167 18.048,15.092 18.164,15.000 18.195 C 14.450 18.378,14.429 23.469,14.976 23.822 C 15.056 23.874,15.171 24.075,15.231 24.269 C 15.396 24.795,16.581 25.972,17.071 26.095 C 17.307 26.154,17.500 26.266,17.500 26.344 C 17.500 26.421,17.763 26.534,18.085 26.595 C 18.407 26.655,18.711 26.771,18.762 26.852 C 18.880 27.043,21.285 27.046,21.403 26.855 C 21.452 26.776,21.794 26.662,22.163 26.603 C 22.532 26.544,22.833 26.430,22.833 26.349 C 22.833 26.269,23.018 26.156,23.243 26.100 C 23.780 25.965,24.812 24.905,25.124 24.167 C 25.260 23.846,25.456 23.530,25.560 23.464 C 25.821 23.301,25.824 18.535,25.564 18.369 C 25.462 18.303,25.325 18.080,25.260 17.872 C 25.118 17.416,23.632 15.833,23.346 15.833 C 23.234 15.833,23.030 15.721,22.893 15.583 C 22.755 15.446,22.465 15.333,22.248 15.333 C 22.031 15.333,21.807 15.258,21.750 15.167 C 21.623 14.961,18.888 14.944,18.762 15.148 M48.430 15.145 C 48.381 15.224,48.039 15.338,47.670 15.397 C 47.302 15.456,47.000 15.578,47.000 15.669 C 47.000 15.759,46.895 15.833,46.766 15.833 C 46.384 15.833,44.947 17.355,44.538 18.193 C 43.900 19.499,43.886 23.833,44.519 23.833 C 44.600 23.833,44.667 23.931,44.667 24.049 C 44.667 24.515,45.778 25.707,46.518 26.035 C 46.783 26.152,47.000 26.298,47.000 26.359 C 47.000 26.421,47.319 26.523,47.708 26.588 C 48.098 26.652,48.506 26.777,48.616 26.865 C 48.999 27.174,53.043 26.720,53.333 26.336 C 53.379 26.275,53.548 26.177,53.708 26.118 C 54.032 25.999,54.149 24.333,53.833 24.333 C 53.742 24.333,53.667 24.114,53.667 23.847 C 53.667 23.364,52.633 23.361,52.330 23.842 C 51.977 24.401,48.801 24.301,48.212 23.712 C 47.870 23.370,47.167 22.219,47.167 22.002 C 47.167 21.861,48.346 21.762,52.292 21.571 C 54.005 21.488,54.167 21.452,54.167 21.157 C 54.167 20.979,54.242 20.833,54.333 20.833 C 54.538 20.833,54.559 18.723,54.355 18.597 C 54.276 18.548,54.162 18.206,54.103 17.837 C 54.044 17.468,53.940 17.167,53.872 17.167 C 53.804 17.167,53.655 16.960,53.542 16.708 C 53.304 16.180,52.381 15.535,51.657 15.390 C 51.384 15.335,51.119 15.225,51.070 15.145 C 50.953 14.956,48.547 14.956,48.430 15.145 M58.417 15.167 C 58.360 15.258,58.037 15.334,57.698 15.336 C 57.360 15.337,56.915 15.383,56.708 15.438 L 56.333 15.539 56.333 21.025 L 56.333 26.512 57.958 26.464 L 59.583 26.417 59.667 22.885 L 59.750 19.353 60.333 18.849 C 60.654 18.571,61.007 18.266,61.118 18.172 C 61.376 17.951,62.667 17.947,62.667 18.167 C 62.667 18.414,63.322 18.369,63.587 18.104 C 63.713 17.977,63.868 17.488,63.930 17.017 C 63.993 16.545,64.109 16.119,64.189 16.070 C 64.483 15.888,64.315 15.666,63.635 15.337 C 62.453 14.766,60.842 14.976,60.000 15.812 C 59.778 16.031,59.743 16.023,59.690 15.738 C 59.569 15.082,58.708 14.696,58.417 15.167 M69.000 15.167 C 69.000 15.258,68.793 15.333,68.540 15.333 C 67.995 15.333,66.000 16.587,66.000 16.930 C 66.000 17.060,65.927 17.167,65.838 17.167 C 65.606 17.167,64.833 18.869,64.833 19.381 C 64.833 19.619,64.758 19.860,64.667 19.917 C 64.463 20.043,64.443 22.112,64.645 22.236 C 64.724 22.286,64.840 22.643,64.902 23.030 C 65.095 24.235,66.362 25.865,67.292 26.106 C 67.498 26.159,67.667 26.269,67.667 26.349 C 67.667 26.430,67.968 26.544,68.337 26.603 C 68.706 26.662,69.048 26.776,69.097 26.855 C 69.214 27.044,71.953 27.044,72.070 26.855 C 72.119 26.776,72.536 26.661,72.996 26.600 C 73.457 26.538,73.833 26.421,73.833 26.339 C 73.833 26.257,74.002 26.166,74.208 26.137 C 74.673 26.071,74.786 25.395,74.495 24.422 C 74.384 24.052,74.269 23.659,74.238 23.548 C 74.178 23.332,73.178 23.580,72.993 23.856 C 72.825 24.107,70.749 24.306,69.917 24.150 C 68.911 23.962,67.833 22.851,67.833 22.001 C 67.833 21.861,69.011 21.762,72.950 21.571 L 74.816 21.480 74.930 20.719 C 75.205 18.887,74.728 17.113,73.726 16.239 C 72.919 15.535,72.855 15.496,72.333 15.392 C 72.054 15.336,71.786 15.225,71.737 15.145 C 71.610 14.940,69.000 14.961,69.000 15.167 M26.333 15.817 C 26.333 16.090,26.398 16.353,26.476 16.402 C 26.555 16.451,26.716 16.961,26.834 17.537 C 26.953 18.112,27.105 18.658,27.172 18.750 C 27.240 18.842,27.350 19.179,27.417 19.500 C 27.484 19.821,27.592 20.158,27.658 20.250 C 27.724 20.342,27.874 20.867,27.991 21.417 C 28.108 21.967,28.261 22.492,28.330 22.583 C 28.400 22.675,28.509 23.040,28.573 23.396 C 28.637 23.751,28.760 24.163,28.845 24.312 C 28.931 24.461,29.096 25.033,29.212 25.583 L 29.424 26.583 31.042 26.631 L 32.661 26.679 32.768 26.006 C 32.828 25.636,32.937 25.333,33.011 25.333 C 33.085 25.333,33.197 24.995,33.259 24.581 C 33.321 24.168,33.430 23.793,33.501 23.749 C 33.572 23.706,33.727 23.182,33.846 22.585 C 33.964 21.988,34.118 21.500,34.187 21.500 C 34.256 21.500,34.364 21.159,34.426 20.743 C 34.543 19.963,34.871 19.800,34.970 20.471 C 34.999 20.670,35.083 20.833,35.157 20.833 C 35.230 20.833,35.382 21.302,35.494 21.875 C 35.606 22.448,35.757 22.992,35.830 23.083 C 35.902 23.175,36.016 23.512,36.084 23.833 C 36.151 24.154,36.253 24.492,36.311 24.583 C 36.369 24.675,36.529 25.162,36.667 25.667 L 36.918 26.583 38.523 26.631 L 40.127 26.678 40.245 26.047 C 40.310 25.701,40.422 25.342,40.493 25.250 C 40.565 25.158,40.677 24.783,40.743 24.417 C 40.809 24.050,40.922 23.675,40.993 23.583 C 41.065 23.492,41.222 22.910,41.342 22.292 C 41.463 21.673,41.614 21.167,41.678 21.167 C 41.743 21.167,41.846 20.831,41.907 20.421 C 41.969 20.010,42.081 19.636,42.157 19.589 C 42.233 19.542,42.389 18.997,42.505 18.377 C 42.621 17.757,42.774 17.211,42.847 17.164 C 42.919 17.116,43.030 16.685,43.094 16.205 L 43.210 15.333 41.605 15.333 C 40.289 15.333,40.000 15.378,40.000 15.583 C 40.000 15.721,39.935 15.833,39.855 15.833 C 39.775 15.833,39.657 16.301,39.592 16.873 C 39.527 17.445,39.415 17.989,39.343 18.082 C 39.270 18.174,39.116 18.887,39.000 19.667 C 38.884 20.446,38.732 21.158,38.663 21.250 C 38.593 21.342,38.499 21.567,38.454 21.750 C 38.392 22.004,38.367 21.974,38.353 21.625 C 38.342 21.373,38.267 21.167,38.185 21.167 C 38.104 21.167,37.987 20.885,37.925 20.542 C 37.803 19.860,37.215 17.900,37.012 17.500 C 36.942 17.362,36.791 16.856,36.676 16.375 L 36.467 15.500 34.836 15.500 C 33.064 15.500,33.009 15.534,33.002 16.625 C 33.001 16.831,32.930 17.000,32.844 17.000 C 32.757 17.000,32.636 17.338,32.574 17.752 C 32.512 18.166,32.400 18.542,32.324 18.589 C 32.248 18.636,32.135 19.011,32.074 19.423 C 32.012 19.834,31.900 20.209,31.824 20.256 C 31.748 20.303,31.635 20.680,31.573 21.094 C 31.428 22.064,31.126 21.970,30.957 20.903 C 30.885 20.452,30.756 19.933,30.669 19.750 C 30.582 19.567,30.429 18.939,30.328 18.355 C 30.227 17.771,30.082 17.171,30.005 17.022 C 29.929 16.872,29.802 16.450,29.725 16.083 L 29.583 15.417 27.958 15.369 L 26.333 15.321 26.333 15.817 M106.392 15.833 C 106.447 16.108,106.644 16.667,106.829 17.074 C 107.015 17.482,107.167 17.915,107.167 18.037 C 107.167 18.159,107.270 18.407,107.395 18.588 C 107.521 18.769,107.677 19.160,107.742 19.458 C 107.807 19.756,107.919 20.000,107.992 20.000 C 108.065 20.000,108.170 20.225,108.225 20.500 C 108.280 20.775,108.477 21.333,108.662 21.741 C 108.848 22.148,109.000 22.598,109.000 22.741 C 109.000 22.883,109.069 23.000,109.153 23.000 C 109.238 23.000,109.359 23.244,109.422 23.542 C 109.537 24.078,110.019 25.298,110.351 25.891 C 110.526 26.205,110.508 26.261,109.638 28.120 C 109.261 28.924,108.577 29.175,107.646 28.851 C 106.916 28.597,106.500 28.620,106.500 28.917 C 106.500 29.054,106.438 29.167,106.362 29.167 C 106.229 29.167,105.833 30.610,105.833 31.096 C 105.833 31.227,105.977 31.333,106.153 31.333 C 106.328 31.333,106.503 31.427,106.542 31.542 C 106.592 31.693,107.154 31.750,108.583 31.750 C 110.013 31.750,110.575 31.693,110.625 31.542 C 110.663 31.427,110.782 31.333,110.890 31.333 C 111.254 31.333,112.210 30.111,112.708 29.011 C 113.610 27.016,113.667 26.869,113.667 26.516 C 113.667 26.324,113.734 26.167,113.817 26.167 C 113.899 26.167,114.057 25.792,114.167 25.333 C 114.277 24.875,114.434 24.500,114.517 24.500 C 114.599 24.500,114.667 24.383,114.667 24.241 C 114.667 24.098,114.808 23.667,114.981 23.283 C 115.154 22.898,115.348 22.340,115.411 22.042 C 115.475 21.744,115.596 21.500,115.680 21.500 C 115.764 21.500,115.833 21.383,115.833 21.241 C 115.833 21.098,115.985 20.648,116.171 20.241 C 116.356 19.833,116.553 19.275,116.608 19.000 C 116.663 18.725,116.766 18.500,116.836 18.500 C 116.906 18.500,117.012 18.237,117.072 17.917 C 117.133 17.596,117.238 17.333,117.306 17.333 C 117.437 17.333,117.833 16.011,117.833 15.575 C 117.833 15.096,114.599 15.308,114.530 15.792 C 114.501 15.998,114.416 16.167,114.341 16.167 C 114.266 16.167,114.154 16.504,114.092 16.917 C 114.030 17.329,113.916 17.667,113.838 17.667 C 113.760 17.667,113.645 17.966,113.583 18.332 C 113.522 18.699,113.406 19.039,113.326 19.088 C 113.247 19.137,113.093 19.625,112.986 20.172 C 112.878 20.719,112.731 21.167,112.660 21.167 C 112.588 21.167,112.479 21.467,112.417 21.833 C 112.263 22.745,112.091 22.670,111.849 21.586 C 111.736 21.084,111.574 20.629,111.489 20.576 C 111.403 20.524,111.333 20.354,111.332 20.198 C 111.332 20.043,111.229 19.721,111.105 19.482 C 110.980 19.244,110.786 18.662,110.672 18.190 C 110.559 17.718,110.406 17.295,110.331 17.249 C 110.257 17.203,110.145 16.865,110.083 16.499 C 110.021 16.133,109.902 15.833,109.819 15.833 C 109.735 15.833,109.667 15.721,109.667 15.583 C 109.667 15.378,109.368 15.333,107.979 15.333 L 106.292 15.333 106.392 15.833 M20.911 17.852 C 22.058 18.170,22.689 19.341,22.689 21.150 C 22.689 21.828,22.619 22.428,22.534 22.483 C 22.448 22.538,22.327 22.749,22.264 22.951 C 22.009 23.766,21.194 24.207,20.075 24.136 C 19.015 24.069,19.019 24.071,17.961 22.837 C 17.672 22.501,17.672 19.500,17.960 19.163 C 18.076 19.027,18.324 18.711,18.512 18.460 C 18.805 18.070,19.485 17.733,20.083 17.683 C 20.175 17.675,20.548 17.751,20.911 17.852 M50.573 17.859 C 50.857 17.988,51.029 18.233,51.099 18.609 C 51.157 18.916,51.270 19.167,51.352 19.167 C 51.433 19.167,51.500 19.279,51.500 19.417 C 51.500 19.626,51.150 19.667,49.351 19.667 L 47.203 19.667 47.504 19.076 C 48.184 17.742,49.324 17.290,50.573 17.859 M71.075 17.860 C 71.309 17.966,71.500 18.148,71.500 18.263 C 71.500 18.378,71.566 18.497,71.646 18.528 C 71.727 18.558,71.845 18.827,71.910 19.125 L 72.026 19.667 69.935 19.667 C 67.615 19.667,67.693 19.724,68.403 18.553 C 68.916 17.708,70.080 17.406,71.075 17.860 M83.625 18.017 C 84.024 18.168,84.238 23.500,83.845 23.500 C 83.760 23.500,83.560 23.630,83.402 23.789 C 82.591 24.600,80.000 23.820,80.000 22.765 C 80.000 22.635,79.911 22.498,79.803 22.462 C 79.675 22.420,79.601 21.952,79.594 21.145 C 79.570 18.391,81.221 17.109,83.625 18.017 M8.807 18.110 C 8.867 18.201,9.038 18.319,9.187 18.374 C 9.336 18.428,9.510 18.685,9.575 18.943 C 9.640 19.202,9.771 19.462,9.867 19.521 C 10.127 19.681,10.133 22.372,9.874 22.459 C 9.760 22.497,9.667 22.640,9.667 22.778 C 9.667 23.460,8.539 24.167,7.451 24.167 C 5.695 24.167,5.667 24.119,5.667 21.114 C 5.667 18.372,5.637 18.465,6.667 17.961 C 7.010 17.793,8.672 17.909,8.807 18.110 M101.605 18.180 C 101.914 18.371,102.167 18.627,102.167 18.750 C 102.167 18.872,102.249 19.000,102.350 19.033 C 102.450 19.067,102.573 19.450,102.622 19.884 C 102.671 20.319,102.776 20.715,102.855 20.764 C 103.044 20.880,103.044 21.667,102.855 21.667 C 102.775 21.667,102.666 21.942,102.611 22.279 C 102.371 23.760,100.212 24.738,98.822 23.994 C 98.333 23.732,98.329 18.721,98.817 18.302 C 99.468 17.745,100.806 17.686,101.605 18.180 " stroke="none" fill="#040404" fill-rule="evenodd"></path><path id="path2" d="M293.576 10.083 C 293.576 14.025,293.598 15.614,293.625 13.614 C 293.651 11.614,293.651 8.389,293.625 6.447 C 293.598 4.505,293.576 6.142,293.576 10.083 M277.413 18.167 C 277.413 26.462,277.433 29.856,277.458 25.708 C 277.483 21.560,277.483 14.773,277.458 10.625 C 277.433 6.477,277.413 9.871,277.413 18.167 M387.083 9.333 L 386.583 9.461 387.032 9.480 C 387.279 9.491,387.527 9.425,387.583 9.333 C 387.640 9.242,387.663 9.176,387.635 9.186 C 387.607 9.197,387.358 9.263,387.083 9.333 M361.566 12.000 C 361.566 13.329,361.592 13.873,361.624 13.208 C 361.655 12.544,361.655 11.456,361.624 10.792 C 361.592 10.127,361.566 10.671,361.566 12.000 M372.903 17.583 C 372.903 19.417,372.928 20.189,372.957 19.301 C 372.987 18.412,372.988 16.912,372.958 15.967 C 372.928 15.023,372.904 15.750,372.903 17.583 M304.545 15.167 C 304.545 15.579,304.578 15.748,304.618 15.542 C 304.657 15.335,304.657 14.998,304.618 14.792 C 304.578 14.585,304.545 14.754,304.545 15.167 M320.042 17.583 C 320.044 17.950,320.078 18.080,320.118 17.873 C 320.158 17.666,320.156 17.366,320.115 17.206 C 320.073 17.047,320.040 17.217,320.042 17.583 M304.372 18.000 C 304.372 18.321,304.406 18.452,304.448 18.292 C 304.490 18.131,304.490 17.869,304.448 17.708 C 304.406 17.548,304.372 17.679,304.372 18.000 M285.243 25.833 C 285.243 29.821,285.265 31.452,285.291 29.458 C 285.318 27.465,285.318 24.202,285.291 22.208 C 285.265 20.215,285.243 21.846,285.243 25.833 M304.542 20.750 C 304.544 21.117,304.578 21.247,304.618 21.040 C 304.658 20.832,304.656 20.532,304.615 20.373 C 304.573 20.214,304.540 20.383,304.542 20.750 M361.567 23.833 C 361.567 25.254,361.593 25.835,361.624 25.125 C 361.655 24.415,361.655 23.252,361.624 22.542 C 361.593 21.831,361.567 22.412,361.567 23.833 " stroke="none" fill="#c01c04" fill-rule="evenodd"></path><path id="path3" d="" stroke="none" fill="#341c04" fill-rule="evenodd"></path><path id="path4" d="" stroke="none" fill="#042004" fill-rule="evenodd"></path></g></svg>